# xmcd
#
# Track frame offsets:
#	150
#	16634
#	34900
#	51397
#	72294
#	89660
#	110715
#	125634
#	142512
#	157753
#	173330
#
# Disc length: 2514 seconds
#
# Revision: 0
# Processed by: cddbd v1.5.2PL0 Copyright (c) Steve Scherf et al.
# Submitted via: dBpowerAMP V4.0
#
DISCID=8709d00b
DTITLE=Laura Izibor - Let the truth be told
DYEAR=2009
DGENRE=Soul
TTITLE0=Shine
TTITLE1=Don't stay
TTITLE2=If tonight is my last
TTITLE3=What would you do
TTITLE4=From my heart to yours
TTITLE5=Perfect world
TTITLE6=The worst is over
TTITLE7=Yes (i'll be your baby)
TTITLE8=I don't want you back
TTITLE9=Mmm...
TTITLE10=It ain't over ('cos i need you)
EXTD=Laura Izibor
EXTT0=
EXTT1=
EXTT2=
EXTT3=
EXTT4=
EXTT5=
EXTT6=
EXTT7=
EXTT8=
EXTT9=
EXTT10=
PLAYORDER=
